<svg xmlns="http://www.w3.org/2000/svg" width="512" height="512" style="" viewBox="0 0 512 512" data-svgdocument="" id="_Ylb0aY22Pm7yvUz2QqOPv" class="fl-svgdocument" x="0" y="0" xmlns:xlink="http://www.w3.org/1999/xlink"><defs id="_GT-sQjlnFsJNGr42AetPE" transform="matrix(0.7646975016867646, 0, 0, 0.7646975016867646, 42.64036002940661, 32.79009015870221)"/><path id="_P7HfyQ0MEgtZlg0rYYmRA" d="M49.207,0.221L24.079,7.219v1.636c0,1.779-5.313,4.965-10.081,6.711l-1.583,0.581l-0.002,1.488v36.701  c0,12.679,6.334,24.534,18.315,34.282c8.958,7.289,17.828,10.814,18.202,10.961L50,100l1.07-0.42  c0.373-0.146,9.242-3.672,18.202-10.961c11.981-9.748,18.314-21.604,18.314-34.282V16.149l-1.585-0.582  c-4.769-1.747-10.081-4.933-10.081-6.711V7.219L50,0L49.207,0.221z" fill="#292929" transform="matrix(3.108036642297822, 0, 0, 3.0379902372582177, 102.13818462772406, 48)"/><path id="__DrNwL-GNWJZkdmB27IaR" d="M49.207,0.221L24.079,7.219v1.636c0,1.779-5.313,4.965-10.081,6.711l-1.583,0.581l-0.002,1.488v36.701  c0,12.679,6.334,24.534,18.315,34.282c8.958,7.289,17.828,10.814,18.202,10.961L50,100l1.07-0.42  c0.373-0.146,9.242-3.672,18.202-10.961c11.981-9.748,18.314-21.604,18.314-34.282V16.149l-1.585-0.582  c-4.769-1.747-10.081-4.933-10.081-6.711V7.219L50,0L49.207,0.221z" fill="#15a1d4" transform="matrix(2.9733732785341047, 0, 0, 2.9063093108954314, 108.86165388918937, 53.80176031390167)"/><path id="_3FiQJtLfbC2zr6M7Drhvp" d="M49.207,0.221L24.079,7.219v1.636c0,1.779-5.313,4.965-10.081,6.711l-1.583,0.581l-0.002,1.488v36.701  c0,12.679,6.334,24.534,18.315,34.282c8.958,7.289,17.828,10.814,18.202,10.961L50,100l1.07-0.42  c0.373-0.146,9.242-3.672,18.202-10.961c11.981-9.748,18.314-21.604,18.314-34.282V16.149l-1.585-0.582  c-4.769-1.747-10.081-4.933-10.081-6.711V7.219L50,0L49.207,0.221z" fill="#292929" transform="matrix(2.6967820417203408, 0, 0, 2.6967820417203408, 122.66680104324539, 64.65625832453603)"/><g id="_7stexy1C7bhiT3Xsu2m8D" transform="matrix(0.8124999428731936, 0, 0, 0.8124999428731936, 49.868970811618425, 47.999998647590964)"><path id="_2FLaE4KKnmxdLFQTvuxWh" d="M94.98,63.124c-0.269-4.852-6.838-8.351-10.316-5.464c-3.867,3.21-0.821,6.524,0.732,6.33  c1.553-0.194,1.412-1.321,1.412-1.321s-1.173,0.59-1.725-0.172s-0.105-2.568,2.15-2.657c2.254-0.09,4.085,2.49,2.404,5.703  c-1.657,3.165-6.793,3.493-9.271,3.493c-2.478,0-6.195-0.418-6.434-4.956c-0.239-4.538,5.061-5.494,7.733-6.822  c2.672-1.329,5.769-2.905,5.986-8.509c0.164-4.24-3.053-7.143-6.322-7.099c-3.269,0.045-4.994,1.261-5.247,3.934  c-0.254,2.672,2.68,3.56,2.68,3.56s0,0-0.485-0.948c-0.485-0.948-0.373-2.642,1.239-2.978c1.612-0.336,2.799,0.47,3.113,1.859  c0.314,1.388-0.022,5.553-8.263,5.912c-7.992,0.347-8.398-8.079-8.415-8.589c2.912-6.582,7.459-14.402,5.069-22.224  C67.076,9.277,57.166,6.769,50,6.769c-7.166,0-17.076,2.508-21.018,15.406c-2.513,8.225,2.645,16.449,5.505,23.232l-0.458-1.033  c0,0-0.153,8.972-8.394,8.614c-8.241-0.358-8.577-4.523-8.263-5.912c0.314-1.388,1.5-2.195,3.113-1.859  c1.612,0.336,1.724,2.03,1.239,2.978c-0.485,0.948-0.485,0.948-0.485,0.948s2.933-0.888,2.68-3.56  c-0.254-2.672-1.978-3.889-5.247-3.934c-3.269-0.045-6.487,2.859-6.322,7.099c0.217,5.605,3.314,7.181,5.986,8.509  c2.672,1.329,7.972,2.284,7.733,6.822c-0.239,4.538-3.956,4.956-6.434,4.956c-2.478,0-7.614-0.328-9.271-3.493  c-1.682-3.212,0.149-5.792,2.404-5.703c2.254,0.09,2.702,1.896,2.15,2.657c-0.552,0.761-1.373-0.09-1.373-0.09  s-0.493,1.388,1.06,1.582s4.598-3.12,0.732-6.33c-3.478-2.887-10.047,0.612-10.316,5.464c-0.296,5.349,3.449,11.928,10.331,12.898  c6.882,0.97,11.719-2.523,13.928-0.478c2.209,2.045,3.299,7.882-0.358,9.853c-3.145,1.694-7.255,0.851-7.733-1.762  c-0.478-2.613,1.687-3.21,2.553-2.269c0.866,0.94-0.582,1.777-0.582,1.777s2.269,0.463,2.448-1.747  c0.19-2.338-1.986-3.837-5.24-2.777c-3.668,1.195-6.584,7.016-0.448,11.644s12.51,3.016,15.571,0.717  C38.55,88.682,41.812,79.667,50,79.667c7.729,0,11.45,9.016,14.511,11.315c3.06,2.299,9.435,3.911,15.571-0.717  s3.22-10.45-0.448-11.644c-3.254-1.06-5.43,0.439-5.24,2.777c0.179,2.209,2.448,1.747,2.448,1.747s-1.448-0.836-0.582-1.777  c0.866-0.941,3.031-0.343,2.553,2.269c-0.478,2.613-4.588,3.456-7.733,1.762c-3.658-1.971-2.568-7.808-0.358-9.853  c2.209-2.045,7.046,1.448,13.928,0.478C91.532,75.052,95.276,68.474,94.98,63.124z M33.826,22.416  c-0.266,0.603-0.502,1.283-0.504,1.456c-0.003,0.295-0.244,0.535-0.538,0.535c-0.001,0-0.002,0-0.003,0  c-0.296-0.002-0.535-0.239-0.535-0.535c0-0.505,0.456-1.575,0.596-1.891c0.12-0.272,0.438-0.395,0.709-0.274  C33.823,21.826,33.946,22.144,33.826,22.416z M38.501,69.246c-0.185,0.072-0.383,0.108-0.587,0.108h0  c-1.65,0-3.301-2.348-4.204-4.675c-1.077-2.775-1.268-5.934,0.454-6.603c0.185-0.072,0.383-0.108,0.587-0.108  c1.65,0,3.3,2.348,4.204,4.675C40.032,65.418,40.222,68.578,38.501,69.246z M44.57,11.787c-0.068,0.02-6.848,2.12-9.926,8.492  c-0.093,0.192-0.285,0.304-0.485,0.304c-0.078,0-0.158-0.017-0.234-0.054c-0.268-0.129-0.38-0.451-0.25-0.718  c3.289-6.81,10.29-8.966,10.586-9.055c0.284-0.085,0.584,0.077,0.669,0.362C45.016,11.403,44.854,11.702,44.57,11.787z   M63.781,17.904c1.054,0,1.911,0.857,1.911,1.911c0,1.054-0.857,1.911-1.911,1.911c-1.054,0-1.911-0.857-1.911-1.911  C61.87,18.761,62.727,17.904,63.781,17.904z M58.503,15.671c0.605,0,1.097,0.492,1.097,1.097c0,0.605-0.492,1.097-1.097,1.097  c-0.605,0-1.097-0.492-1.097-1.097C57.407,16.162,57.899,15.671,58.503,15.671z M54.92,27.354c0-2.48,2.018-4.498,4.498-4.498  c2.48,0,4.498,2.018,4.498,4.498s-2.018,4.498-4.498,4.498C56.938,31.851,54.92,29.834,54.92,27.354z M66.331,64.679  c-0.903,2.327-2.554,4.675-4.204,4.675c-0.204,0-0.401-0.036-0.587-0.108c-1.721-0.669-1.531-3.828-0.454-6.603  c0.903-2.327,2.554-4.675,4.204-4.675c0.204,0,0.402,0.037,0.587,0.108C67.598,58.745,67.408,61.904,66.331,64.679z" fill="#15a1d4" transform="matrix(2.696347236633301, 0, 0, 2.696347236633301, 121.78271484375, 0.49702396988868713)"/><g id="_8RmvyT7BE1lUU2WUpbTYV" transform="matrix(1, 0, 0, 1, 1, 0)"><circle id="_QGf47xshdiYWozBhnj4NX" cx="88.385" cy="88.385" r="88.385" fill="#ffffff" transform="matrix(0.16028062999248505, 0, 0, 0.16028062999248505, 266.51055908203125, 61.291568756103516)"/><circle id="_y4xNNu9SNMe68VYJAq1YZ" cx="88.385" cy="88.385" r="88.385" fill="#ffffff" transform="matrix(0.07388155907392502, 0, 0, 0.07388155907392502, 287.31854248046875, 47.770774841308594)"/><circle id="_kgJn_zC3doRnXkaQKcnVn" cx="88.385" cy="88.385" r="88.385" fill="#ffffff" transform="matrix(0.05741114169359207, 0, 0, 0.05741114169359207, 272.3046569824219, 39.22178649902344)"/></g></g><path id="_0rgLBSK2m-qmTBjs65K_K" fill="#292929" transform="matrix(0.5069944055048826, 0, 0, 0.643875274239879, 256.45954104119573, 407.6104698844034)" text="ATLANTIC" text-anchor="middle" font-size="100" letter-spacing="0" side="left" offset="0.5" dx="0" dy="0" space="preserve" href="" font-family="Holtwood One SC" font-scale="contain" x="0" y="0" data-fl-textpath="" d="M-221.34226562499998 0L-249.122265625 0L-251.762265625-12.6L-272.172265625-12.6L-274.752265625 0L-302.542265625 0L-302.542265625-24.61L-296.532265625-25.83L-282.132265625-75L-241.792265625-75L-227.34226562499998-25.83L-221.34226562499998-24.61L-221.34226562499998 0ZM-261.962265625-57.62L-267.972265625-29.35L-255.952265625-29.35L-261.962265625-57.62ZM-220.79859375-75L-152.04859375-75L-152.04859375-50L-160.25859375-50Q-161.08859375-51.07 -162.15859375-52.2Q-163.22859375000002-53.32 -164.54859375-54.22Q-165.86859375-55.13 -167.42859375-55.69Q-168.99859375-56.25 -170.79859375-56.25L-170.79859375-56.25L-170.79859375-22.41L-164.54859375-21.19L-164.54859375 0L-208.29859375 0L-208.29859375-21.19L-202.04859375-22.41L-202.04859375-56.25Q-203.85859375-56.25 -205.41859375-55.69Q-206.97859375-55.13 -208.29859375-54.22Q-209.61859375-53.32 -210.68859375-52.2Q-211.76859375-51.07 -212.59859375-50L-212.59859375-50L-220.79859375-50L-220.79859375-75ZM-107.81296875000001-52.59L-107.81296875000001-18.75Q-105.47296875-18.75 -103.41296875-19.31Q-101.36296875-19.87 -99.61296875-20.75Q-97.85296875-21.63 -96.41296875-22.75Q-94.97296875-23.88 -93.89296875-25L-93.89296875-25L-85.74296875-25L-85.74296875 0L-145.31296875 0L-145.31296875-21.19L-139.06296875-22.41L-139.06296875-52.59L-145.31296875-53.81L-145.31296875-75L-101.56296875000001-75L-101.56296875000001-53.81L-107.81296875000001-52.59ZM-0.10203124999999602 0L-27.882031249999997 0L-30.522031249999998-12.6L-50.93203125-12.6L-53.51203125 0L-81.30203125 0L-81.30203125-24.61L-75.29203125000001-25.83L-60.89203125-75L-20.55203125-75L-6.102031249999996-25.83L-0.10203124999999602-24.61L-0.10203124999999602 0ZM-40.72203125-57.62L-46.73203125-29.35L-34.71203125-29.35L-40.72203125-57.62ZM 57.615546875 0L 32.665546875000004-36.57L 32.665546875000004-22.41L 38.915546875-21.24L 38.915546875 0L 7.665546875 0L 7.665546875-21.19L 13.915546875-22.41L 13.915546875-52.59L 7.665546875-53.81L 7.665546875-75L 45.165546875-75L 70.165546875-36.57L 70.165546875-52.49L 63.915546875-53.81L 63.915546875-75L 95.165546875-75L 95.165546875-53.81L 88.915546875-52.59L 88.915546875-22.41L 95.165546875-21.19L 95.165546875 0L 57.615546875 0ZM 101.906484375-75L 170.656484375-75L 170.656484375-50L 162.446484375-50Q 161.616484375-51.07  160.546484375-52.2Q 159.47648437499998-53.32  158.156484375-54.22Q 156.836484375-55.13  155.276484375-55.69Q 153.706484375-56.25  151.906484375-56.25L 151.906484375-56.25L 151.906484375-22.41L 158.156484375-21.19L 158.156484375 0L 114.406484375 0L 114.406484375-21.19L 120.656484375-22.41L 120.656484375-56.25Q 118.846484375-56.25  117.286484375-55.69Q 115.726484375-55.13  114.406484375-54.22Q 113.086484375-53.32  112.016484375-52.2Q 110.93648437499999-51.07  110.10648437500001-50L 110.10648437500001-50L 101.906484375-50L 101.906484375-75ZM 177.392109375-53.81L 177.392109375-75L 221.142109375-75L 221.142109375-53.81L 214.892109375-52.59L 214.892109375-22.41L 221.142109375-21.19L 221.142109375 0L 177.392109375 0L 177.392109375-21.19L 183.642109375-22.41L 183.642109375-52.59L 177.392109375-53.81ZM 259.909453125-38.38L 259.909453125-38.38Q 259.909453125-34.18  260.989453125-31.15Q 262.059453125-28.13  264.139453125-26.17Q 266.209453125-24.22  269.209453125-23.29Q 272.219453125-22.36  276.069453125-22.36L 276.069453125-22.36Q 280.659453125-22.36  286.909453125-23.49Q 293.159453125-24.61  300.729453125-26.95L 300.729453125-26.95L 300.729453125-4.1Q 292.869453125-1.46  285.429453125-0.29Q 277.979453125 0.88  270.749453125 0.88L 270.749453125 0.88Q 261.909453125 0.88  254.219453125-1.32Q 246.529453125-3.52  240.849453125-8.42Q 235.159453125-13.33  231.889453125-20.8Q 228.609453125-28.27  228.609453125-38.38L 228.609453125-38.38Q 228.609453125-48.24  231.619453125-55.37Q 234.619453125-62.5  240.109453125-67.11Q 245.60945312500002-71.73  253.299453125-73.93Q 260.989453125-76.12  270.359453125-76.12L 270.359453125-76.12Q 276.119453125-76.12  280.739453125-75.54Q 285.34945312499997-74.95  289.059453125-74.07Q 292.769453125-73.19  295.629453125-72.09Q 298.489453125-71  300.729453125-69.97L 300.729453125-69.97L 300.729453125-47.51L 286.039453125-47.51Q 283.549453125-51.03  280.489453125-52.69Q 277.439453125-54.35  274.219453125-54.35L 274.219453125-54.35Q 271.479453125-54.35  268.919453125-53.27Q 266.359453125-52.2  264.359453125-50.15Q 262.34945312499997-48.1  261.129453125-45.14Q 259.909453125-42.19  259.909453125-38.38Z"/><path text="FC" text-anchor="middle" font-size="100" letter-spacing="0" side="left" offset="0.5" dx="0" dy="0" space="preserve" href="" font-family="Holtwood One SC" font-scale="contain" transform="matrix(0.5069944055048826, 0, 0, 0.643875274239879, 255.1424892462853, 463.4333915271252)" x="0" y="0" fill="#15a1d4" data-fl-textpath="" id="_3K6ynODqkBFWWhdMHniDm" d="M-31.030742187500003-56.25L-31.030742187500003-42.92L-17.750742187500002-46.09L-17.750742187500002-28.81L-31.030742187500003-31.98L-31.030742187500003-22.41L-24.780742187500003-21L-24.780742187500003 0L-68.5307421875 0L-68.5307421875-21.19L-62.280742187499996-22.41L-62.280742187499996-52.49L-68.5307421875-53.71L-68.5307421875-75L-8.130742187500005-75L-8.130742187500005-50L-16.3307421875-50Q-17.500742187500002-51.07 -18.990742187499997-52.2Q-20.4807421875-53.32 -22.310742187499997-54.22Q-24.140742187500003-55.13 -26.320742187500002-55.69Q-28.490742187499997-56.25 -31.030742187500003-56.25L-31.030742187500003-56.25ZM 28.0979296875-38.38L 28.0979296875-38.38Q 28.0979296875-34.18  29.177929687499997-31.15Q 30.247929687499997-28.13  32.3279296875-26.17Q 34.3979296875-24.22  37.3979296875-23.29Q 40.4079296875-22.36  44.2579296875-22.36L 44.2579296875-22.36Q 48.8479296875-22.36  55.0979296875-23.49Q 61.3479296875-24.61  68.9179296875-26.95L 68.9179296875-26.95L 68.9179296875-4.1Q 61.05792968750001-1.46  53.6179296875-0.29Q 46.1679296875 0.88  38.9379296875 0.88L 38.9379296875 0.88Q 30.0979296875 0.88  22.4079296875-1.32Q 14.7179296875-3.52  9.0379296875-8.42Q 3.3479296875000006-13.33  0.07792968750000018-20.8Q-3.2020703125-28.27 -3.2020703125-38.38L-3.2020703125-38.38Q-3.2020703125-48.24 -0.19207031250000028-55.37Q 2.8079296874999997-62.5  8.2979296875-67.11Q 13.797929687500002-71.73  21.4879296875-73.93Q 29.177929687499997-76.12  38.5479296875-76.12L 38.5479296875-76.12Q 44.3079296875-76.12  48.9279296875-75.54Q 53.5379296875-74.95  57.2479296875-74.07Q 60.9579296875-73.19  63.8179296875-72.09Q 66.6779296875-71  68.9179296875-69.97L 68.9179296875-69.97L 68.9179296875-47.51L 54.2279296875-47.51Q 51.7379296875-51.03  48.6779296875-52.69Q 45.6279296875-54.35  42.4079296875-54.35L 42.4079296875-54.35Q 39.6679296875-54.35  37.1079296875-53.27Q 34.5479296875-52.2  32.5479296875-50.15Q 30.537929687499997-48.1  29.317929687499998-45.14Q 28.0979296875-42.19  28.0979296875-38.38Z"/><circle id="_tEroZUvtCG-3pbj4Mia5b" cx="88.385" cy="88.385" r="88.385" fill="#ffffff" transform="matrix(0.7480270597412435, 0, 0, 0.7480270597412435, 191.16899158513817, 217.7849388737216)"/><path transform="matrix(0.21526232524666455, 0, 0, 0.21526232524666455, 189.13161723192584, 215.47219775672818)" fill="#292929" id="_KSWKRIiDc32FuM-3TgEcI" d="M540.709,92.77C480.886,32.945,401.344,0,316.74,0S152.595,32.945,92.771,92.77C32.947,152.594,0,232.137,0,316.74  s32.947,164.144,92.771,223.968c59.824,59.824,139.366,92.772,223.969,92.772s164.146-32.948,223.969-92.772  c59.824-59.824,92.771-139.364,92.771-223.968S600.534,152.594,540.709,92.77z M324.57,107.554l92.539-27.02l92.733,67.617  l2.89,96.052l-91.589,40.3l-96.573-70.166V107.554z M205.126,298.659l36.385,111.981l-60.048,63.582l-93.034-44.109l-24.951-96.114  l51.208-75.133L205.126,298.659z M120.563,245.435l2.989-99.337l92.484-65.661l93.871,27.406v105.771l-98.693,71.705  L120.563,245.435z M247.729,425.413h139.443l0.875-2.691l57.484,60.866l-47.553,75.862H236.493l-46.018-73.414L247.729,425.413z   M455.668,472.962l-62.458-66.131l35.646-109.704l89.139-39.22l52.927,77.658l-26.537,95.333L455.668,472.962z M563.029,152.358  l-47.449-18.172l-93.288-68.021L393.585,30.66C463.704,49.511,523.622,93.509,563.029,152.358z M239.899,30.657L211.71,65.523  l-99.934,70.951l-41.275,15.807C109.909,93.468,169.809,49.502,239.899,30.657z M21.097,298.674l30.053,46.2l24.612,94.803  l-2.161,46.039C40.168,437.758,20.53,379.503,20.53,316.74C20.53,310.671,20.736,304.654,21.097,298.674z M190.81,584.806  l54.874-10.691h143.104l54.173,10.557c-38.312,18.121-81.101,28.28-126.221,28.28C271.733,612.951,229.049,602.844,190.81,584.806z   M560.808,484.381l-2.321-49.462l26.087-93.723l27.797-42.729c0.37,6.046,0.58,12.135,0.58,18.272  C612.951,378.922,593.676,436.678,560.808,484.381z"/></svg>